<!DOCTYPE svg PUBLIC "-//W3C//DTD SVG 1.1//EN"
 "http://www.w3.org/Graphics/SVG/1.1/DTD/svg11.dtd">
<svg version="1.1"
 width="600px" height="510px"
 viewBox="0 0 600 510"
 xmlns="http://www.w3.org/2000/svg" shape-rendering="crispEdges"
 stroke-width="1" text-rendering="geometricPrecision">
<polygon fill="white" points="53,7 95,7 95,16 53,16"/>
<text x="75" y="16" textLength="40" font-family="Helvetica" font-size="12" fill="black" text-anchor="middle">

Node A
</text>
<polygon fill="white" points="203,7 245,7 245,16 203,16"/>
<text x="225" y="16" textLength="40" font-family="Helvetica" font-size="12" fill="black" text-anchor="middle">

Node B
</text>
<polygon fill="white" points="353,7 395,7 395,16 353,16"/>
<text x="375" y="16" textLength="41" font-family="Helvetica" font-size="12" fill="black" text-anchor="middle">

Node C
</text>
<polygon fill="white" points="508,7 540,7 540,16 508,16"/>
<text x="525" y="16" textLength="31" font-family="Helvetica" font-size="12" fill="black" text-anchor="middle">

World
</text>
<line x1="75" y1="22" x2="75" y2="39" stroke="#BBBBBB" stroke-dasharray="2,2"/>
<line x1="225" y1="22" x2="225" y2="39" stroke="#BBBBBB" stroke-dasharray="2,2"/>
<line x1="375" y1="22" x2="375" y2="39" stroke="#BBBBBB" stroke-dasharray="2,2"/>
<line x1="525" y1="22" x2="525" y2="39" stroke="#BBBBBB" stroke-dasharray="2,2"/>
<line x1="75" y1="39" x2="75" y2="67" stroke="#BBBBBB"/>
<line x1="225" y1="39" x2="225" y2="67" stroke="#BBBBBB"/>
<line x1="375" y1="39" x2="375" y2="67" stroke="#BBBBBB"/>
<line x1="525" y1="39" x2="525" y2="67" stroke="#BBBBBB"/>
<path d="M 75 56 A73,6 0 0,1 75,44" stroke="black" fill="none"/><polygon fill="black" points="75,56 65,62 65,50"/>
<polygon fill="white" points="75,40 366,40 366,49 75,49"/>
<text x="76" y="49" textLength="289" font-family="Helvetica" font-size="12" fill="black">
I know B delivers money to C with fee &lt;x&gt; in time &lt;y&gt;.
</text>
<line x1="75" y1="67" x2="75" y2="95" stroke="#BBBBBB"/>
<line x1="225" y1="67" x2="225" y2="95" stroke="#BBBBBB"/>
<line x1="375" y1="67" x2="375" y2="95" stroke="#BBBBBB"/>
<line x1="525" y1="67" x2="525" y2="95" stroke="#BBBBBB"/>
<path d="M 75 84 A73,6 0 0,1 75,72" stroke="black" fill="none"/><polygon fill="black" points="75,84 65,90 65,78"/>
<polygon fill="white" points="75,68 374,68 374,77 75,77"/>
<text x="76" y="77" textLength="297" font-family="Helvetica" font-size="12" fill="black">
Node B's route is the most suitable (by some definition).
</text>
<line x1="75" y1="95" x2="75" y2="123" stroke="#BBBBBB"/>
<line x1="225" y1="95" x2="225" y2="123" stroke="#BBBBBB"/>
<line x1="375" y1="95" x2="375" y2="123" stroke="#BBBBBB"/>
<line x1="525" y1="95" x2="525" y2="123" stroke="#BBBBBB"/>
<line x1="75" y1="106" x2="225" y2="106" stroke="black"/>
<polygon fill="black" points="225,106 215,112 215,100"/>
<polygon fill="white" points="18,96 281,96 281,105 18,105"/>
<text x="19" y="105" textLength="261" font-family="Helvetica" font-size="12" fill="black">
2: EXE('Please initiate the following transaction.')
</text>
<line x1="75" y1="123" x2="75" y2="151" stroke="#BBBBBB"/>
<line x1="225" y1="123" x2="225" y2="151" stroke="#BBBBBB"/>
<line x1="375" y1="123" x2="375" y2="151" stroke="#BBBBBB"/>
<line x1="525" y1="123" x2="525" y2="151" stroke="#BBBBBB"/>
<line x1="225" y1="134" x2="75" y2="134" stroke="red"/>
<polygon fill="red" points="75,134 85,140 85,128"/>
<polygon fill="white" points="13,124 285,124 285,133 13,133"/>
<text x="14" y="133" textLength="270" font-family="Helvetica" font-size="12" fill="red">
(non-error response indicates everything still good)
</text>
<line x1="75" y1="151" x2="75" y2="179" stroke="#BBBBBB"/>
<line x1="225" y1="151" x2="225" y2="179" stroke="#BBBBBB"/>
<line x1="375" y1="151" x2="375" y2="179" stroke="#BBBBBB"/>
<line x1="525" y1="151" x2="525" y2="179" stroke="#BBBBBB"/>
<path d="M 225 168 A73,6 0 0,1 225,156" stroke="black" fill="none"/><polygon fill="black" points="225,168 215,174 215,162"/>
<polygon fill="white" points="225,152 430,152 430,161 225,161"/>
<text x="226" y="161" textLength="203" font-family="Helvetica" font-size="12" fill="black">
3: Transaction confirmed and initiated.
</text>
<line x1="75" y1="179" x2="75" y2="196" stroke="#BBBBBB"/>
<line x1="225" y1="179" x2="225" y2="196" stroke="#BBBBBB"/>
<line x1="375" y1="179" x2="375" y2="196" stroke="#BBBBBB"/>
<line x1="525" y1="179" x2="525" y2="196" stroke="#BBBBBB"/>
<line x1="37" y1="184" x2="563" y2="184" stroke="black" stroke-dasharray="2,2"/>
<polygon fill="white" points="278,180 320,180 320,189 278,189"/>
<text x="279" y="189" textLength="40" font-family="Helvetica" font-size="12" fill="black">
either...
</text>
<line x1="75" y1="196" x2="75" y2="224" stroke="#BBBBBB"/>
<line x1="225" y1="196" x2="225" y2="224" stroke="#BBBBBB"/>
<line x1="375" y1="196" x2="375" y2="224" stroke="#BBBBBB"/>
<line x1="525" y1="196" x2="525" y2="224" stroke="#BBBBBB"/>
<line x1="75" y1="207" x2="225" y2="207" stroke="black"/>
<polygon fill="black" points="225,207 215,213 215,201"/>
<polygon fill="white" points="67,197 232,197 232,206 67,206"/>
<text x="68" y="206" textLength="163" font-family="Helvetica" font-size="12" fill="black">
4a: RPT('Funds have arrived.')
</text>
<line x1="75" y1="224" x2="75" y2="241" stroke="#BBBBBB"/>
<line x1="225" y1="224" x2="225" y2="241" stroke="#BBBBBB"/>
<line x1="375" y1="224" x2="375" y2="241" stroke="#BBBBBB"/>
<line x1="525" y1="224" x2="525" y2="241" stroke="#BBBBBB"/>
<line x1="37" y1="229" x2="563" y2="229" stroke="black" stroke-dasharray="2,2"/>
<polygon fill="white" points="275,225 324,225 324,234 275,234"/>
<text x="276" y="234" textLength="47" font-family="Helvetica" font-size="12" fill="black">
or/then...
</text>
<line x1="75" y1="241" x2="75" y2="269" stroke="#BBBBBB"/>
<line x1="225" y1="241" x2="225" y2="269" stroke="#BBBBBB"/>
<line x1="375" y1="241" x2="375" y2="269" stroke="#BBBBBB"/>
<line x1="525" y1="241" x2="525" y2="269" stroke="#BBBBBB"/>
<path d="M 225 258 A73,6 0 0,1 225,246" stroke="black" fill="none"/><polygon fill="black" points="225,258 215,264 215,252"/>
<polygon fill="white" points="225,242 380,242 380,251 225,251"/>
<text x="226" y="251" textLength="153" font-family="Helvetica" font-size="12" fill="black">
4b: Confirm funds are here...
</text>
<line x1="75" y1="269" x2="75" y2="286" stroke="#BBBBBB"/>
<line x1="225" y1="269" x2="225" y2="286" stroke="#BBBBBB"/>
<line x1="375" y1="269" x2="375" y2="286" stroke="#BBBBBB"/>
<line x1="525" y1="269" x2="525" y2="286" stroke="#BBBBBB"/>
<line x1="37" y1="274" x2="563" y2="274" stroke="black" stroke-dasharray="2,2"/>
<line x1="75" y1="286" x2="75" y2="314" stroke="#BBBBBB"/>
<line x1="225" y1="286" x2="225" y2="314" stroke="#BBBBBB"/>
<line x1="375" y1="286" x2="375" y2="314" stroke="#BBBBBB"/>
<line x1="525" y1="286" x2="525" y2="314" stroke="#BBBBBB"/>
<line x1="225" y1="297" x2="75" y2="297" stroke="black"/>
<polygon fill="black" points="75,297 85,303 85,291"/>
<polygon fill="white" points="41,287 257,287 257,296 41,296"/>
<text x="42" y="296" textLength="214" font-family="Helvetica" font-size="12" fill="black">
4c: RPT('Funds confirmed as received.')
</text>
<line x1="75" y1="314" x2="75" y2="342" stroke="#BBBBBB"/>
<line x1="225" y1="314" x2="225" y2="342" stroke="#BBBBBB"/>
<line x1="375" y1="314" x2="375" y2="342" stroke="#BBBBBB"/>
<line x1="525" y1="314" x2="525" y2="342" stroke="#BBBBBB"/>
<line x1="225" y1="325" x2="75" y2="325" stroke="black"/>
<polygon fill="black" points="75,325 85,331 85,319"/>
<polygon fill="white" points="91,315 208,315 208,324 91,324"/>
<text x="92" y="324" textLength="115" font-family="Helvetica" font-size="12" fill="black">
4.1: EXR('Pending...')
</text>
<line x1="75" y1="342" x2="75" y2="370" stroke="#BBBBBB"/>
<line x1="225" y1="342" x2="225" y2="370" stroke="#BBBBBB"/>
<line x1="375" y1="342" x2="375" y2="370" stroke="#BBBBBB"/>
<line x1="525" y1="342" x2="525" y2="370" stroke="#BBBBBB"/>
<line x1="225" y1="353" x2="375" y2="353" stroke="black"/>
<polygon fill="black" points="375,353 365,359 365,347"/>
<polygon fill="white" points="118,343 480,343 480,352 118,352"/>
<text x="119" y="352" textLength="360" font-family="Helvetica" font-size="12" fill="black">
4.2: Actual transfer of some nature occurs here (out of IFEX scope.)
</text>
<line x1="75" y1="370" x2="75" y2="398" stroke="#BBBBBB"/>
<line x1="225" y1="370" x2="225" y2="398" stroke="#BBBBBB"/>
<line x1="375" y1="370" x2="375" y2="398" stroke="#BBBBBB"/>
<line x1="525" y1="370" x2="525" y2="398" stroke="#BBBBBB"/>
<line x1="225" y1="381" x2="375" y2="381" stroke="black"/>
<polygon fill="black" points="375,381 365,387 365,375"/>
<polygon fill="white" points="199,371 400,371 400,380 199,380"/>
<text x="200" y="380" textLength="199" font-family="Helvetica" font-size="12" fill="black">
4.3: RPT('You now have my money.')
</text>
<line x1="75" y1="398" x2="75" y2="426" stroke="#BBBBBB"/>
<line x1="225" y1="398" x2="225" y2="426" stroke="#BBBBBB"/>
<line x1="375" y1="398" x2="375" y2="426" stroke="#BBBBBB"/>
<line x1="525" y1="398" x2="525" y2="426" stroke="#BBBBBB"/>
<path d="M 375 403 A75,6 0 0,1 375,415" stroke="red" fill="none"/><polygon fill="red" points="375,415 385,421 385,409"/>
<polygon fill="white" points="246,399 373,399 373,408 246,408"/>
<text x="247" y="408" textLength="125" font-family="Helvetica" font-size="12" fill="red">
Check funds are here...
</text>
<line x1="75" y1="426" x2="75" y2="454" stroke="#BBBBBB"/>
<line x1="225" y1="426" x2="225" y2="454" stroke="#BBBBBB"/>
<line x1="375" y1="426" x2="375" y2="454" stroke="#BBBBBB"/>
<line x1="525" y1="426" x2="525" y2="454" stroke="#BBBBBB"/>
<line x1="375" y1="437" x2="225" y2="437" stroke="black"/>
<polygon fill="black" points="225,437 235,443 235,431"/>
<polygon fill="white" points="188,427 411,427 411,436 188,436"/>
<text x="189" y="436" textLength="221" font-family="Helvetica" font-size="12" fill="black">
4.4b: RPT('Got it.') (ie. C-proof-of-receipt)
</text>
<line x1="75" y1="454" x2="75" y2="482" stroke="#BBBBBB"/>
<line x1="225" y1="454" x2="225" y2="482" stroke="#BBBBBB"/>
<line x1="375" y1="454" x2="375" y2="482" stroke="#BBBBBB"/>
<line x1="525" y1="454" x2="525" y2="482" stroke="#BBBBBB"/>
<line x1="225" y1="465" x2="75" y2="465" stroke="black"/>
<polygon fill="black" points="75,465 85,471 85,459"/>
<polygon fill="white" points="14,455 285,455 285,464 14,464"/>
<text x="15" y="464" textLength="269" font-family="Helvetica" font-size="12" fill="black">
1: RPT('Status now SUCCESS',C-proof-of-receipt)
</text>
<line x1="75" y1="482" x2="75" y2="510" stroke="#BBBBBB"/>
<line x1="225" y1="482" x2="225" y2="510" stroke="#BBBBBB"/>
<line x1="375" y1="482" x2="375" y2="510" stroke="#BBBBBB"/>
<line x1="525" y1="482" x2="525" y2="510" stroke="#BBBBBB"/>
<line x1="75" y1="493" x2="225" y2="493" stroke="black"/>
<polygon fill="black" points="225,493 215,499 215,487"/>
<polygon fill="white" points="70,483 228,483 228,492 70,492"/>
<text x="71" y="492" textLength="156" font-family="Helvetica" font-size="12" fill="black">
2: RPT('Yep, we're all done.')
</text>
<line x1="75" y1="504" x2="75" y2="510" stroke="#BBBBBB"/>
<line x1="225" y1="504" x2="225" y2="510" stroke="#BBBBBB"/>
<line x1="375" y1="504" x2="375" y2="510" stroke="#BBBBBB"/>
<line x1="525" y1="504" x2="525" y2="510" stroke="#BBBBBB"/>
</svg>
