<!DOCTYPE svg PUBLIC "-//W3C//DTD SVG 1.1//EN"
 "http://www.w3.org/Graphics/SVG/1.1/DTD/svg11.dtd">
<svg version="1.1"
 width="600px" height="751px"
 viewBox="0 0 600 751"
 xmlns="http://www.w3.org/2000/svg" shape-rendering="crispEdges"
 stroke-width="1" text-rendering="geometricPrecision">
<polygon fill="white" points="53,7 95,7 95,16 53,16"/>
<text x="75" y="16" textLength="40" font-family="Helvetica" font-size="12" fill="black" text-anchor="middle">

Node A
</text>
<polygon fill="white" points="203,7 245,7 245,16 203,16"/>
<text x="225" y="16" textLength="40" font-family="Helvetica" font-size="12" fill="black" text-anchor="middle">

Node B
</text>
<polygon fill="white" points="353,7 395,7 395,16 353,16"/>
<text x="375" y="16" textLength="41" font-family="Helvetica" font-size="12" fill="black" text-anchor="middle">

Node C
</text>
<polygon fill="white" points="508,7 540,7 540,16 508,16"/>
<text x="525" y="16" textLength="31" font-family="Helvetica" font-size="12" fill="black" text-anchor="middle">

World
</text>
<line x1="75" y1="22" x2="75" y2="39" stroke="#BBBBBB" stroke-dasharray="2,2"/>
<line x1="225" y1="22" x2="225" y2="39" stroke="#BBBBBB" stroke-dasharray="2,2"/>
<line x1="375" y1="22" x2="375" y2="39" stroke="#BBBBBB" stroke-dasharray="2,2"/>
<line x1="525" y1="22" x2="525" y2="39" stroke="#BBBBBB" stroke-dasharray="2,2"/>
<line x1="75" y1="39" x2="75" y2="67" stroke="#BBBBBB"/>
<line x1="225" y1="39" x2="225" y2="67" stroke="#BBBBBB"/>
<line x1="375" y1="39" x2="375" y2="67" stroke="#BBBBBB"/>
<line x1="525" y1="39" x2="525" y2="67" stroke="#BBBBBB"/>
<line x1="75" y1="50" x2="525" y2="50" stroke="black"/>
<polygon fill="black" points="525,50 515,56 515,44"/>
<polygon fill="white" points="242,40 357,40 357,49 242,49"/>
<text x="243" y="49" textLength="113" font-family="Helvetica" font-size="12" fill="black">
1: Quotation Request
</text>
<polygon fill="white" points="355,37 506,37 506,42 355,42"/>
<text x="356" y="42" textLength="149" font-family="Helvetica" font-size="8" fill="black">
Can you deliver funds to Node C's IIBAN?
</text>
<line x1="75" y1="67" x2="75" y2="95" stroke="#BBBBBB"/>
<line x1="225" y1="67" x2="225" y2="95" stroke="#BBBBBB"/>
<line x1="375" y1="67" x2="375" y2="95" stroke="#BBBBBB"/>
<line x1="525" y1="67" x2="525" y2="95" stroke="#BBBBBB"/>
<path d="M 225 84 A73,6 0 0,1 225,72" stroke="black" fill="none"/><polygon fill="black" points="225,84 215,90 215,78"/>
<polygon fill="white" points="225,68 310,68 310,77 225,77"/>
<text x="226" y="77" textLength="83" font-family="Helvetica" font-size="12" fill="black">
2: I can do that!
</text>
<line x1="75" y1="95" x2="75" y2="123" stroke="#BBBBBB"/>
<line x1="225" y1="95" x2="225" y2="123" stroke="#BBBBBB"/>
<line x1="375" y1="95" x2="375" y2="123" stroke="#BBBBBB"/>
<line x1="525" y1="95" x2="525" y2="123" stroke="#BBBBBB"/>
<line x1="225" y1="106" x2="375" y2="106" stroke="black"/>
<polygon fill="black" points="375,106 365,112 365,100"/>
<polygon fill="white" points="167,96 432,96 432,105 167,105"/>
<text x="168" y="105" textLength="263" font-family="Helvetica" font-size="12" fill="black">
2.1: RFQ('Want some free money from Node A?')
</text>
<line x1="75" y1="123" x2="75" y2="151" stroke="#BBBBBB"/>
<line x1="225" y1="123" x2="225" y2="151" stroke="#BBBBBB"/>
<line x1="375" y1="123" x2="375" y2="151" stroke="#BBBBBB"/>
<line x1="525" y1="123" x2="525" y2="151" stroke="#BBBBBB"/>
<line x1="525" y1="134" x2="375" y2="134" stroke="red"/>
<polygon fill="red" points="375,134 385,140 385,128"/>
<polygon fill="white" points="373,124 525,124 525,133 373,133"/>
<text x="374" y="133" textLength="150" font-family="Helvetica" font-size="12" fill="red">
Possible flood of responses!
</text>
<line x1="75" y1="151" x2="75" y2="179" stroke="#BBBBBB"/>
<line x1="225" y1="151" x2="225" y2="179" stroke="#BBBBBB"/>
<line x1="375" y1="151" x2="375" y2="179" stroke="#BBBBBB"/>
<line x1="525" y1="151" x2="525" y2="179" stroke="#BBBBBB"/>
<line x1="375" y1="162" x2="225" y2="162" stroke="black"/>
<polygon fill="black" points="225,162 235,168 235,156"/>
<polygon fill="white" points="228,152 371,152 371,161 228,161"/>
<text x="229" y="161" textLength="141" font-family="Helvetica" font-size="12" fill="black">
2.2: QUO('Most certainly!')
</text>
<line x1="75" y1="179" x2="75" y2="207" stroke="#BBBBBB"/>
<line x1="225" y1="179" x2="225" y2="207" stroke="#BBBBBB"/>
<line x1="375" y1="179" x2="375" y2="207" stroke="#BBBBBB"/>
<line x1="525" y1="179" x2="525" y2="207" stroke="#BBBBBB"/>
<line x1="375" y1="190" x2="525" y2="190" stroke="red"/>
<polygon fill="red" points="525,190 515,196 515,184"/>
<polygon fill="white" points="380,180 518,180 518,189 380,189"/>
<text x="381" y="189" textLength="136" font-family="Helvetica" font-size="12" fill="red">
Possible flood of accepts!
</text>
<line x1="75" y1="207" x2="75" y2="235" stroke="#BBBBBB"/>
<line x1="225" y1="207" x2="225" y2="235" stroke="#BBBBBB"/>
<line x1="375" y1="207" x2="375" y2="235" stroke="#BBBBBB"/>
<line x1="525" y1="207" x2="525" y2="235" stroke="#BBBBBB"/>
<line x1="225" y1="218" x2="75" y2="218" stroke="black"/>
<polygon fill="black" points="75,218 85,224 85,212"/>
<polygon fill="white" points="34,208 265,208 265,217 34,217"/>
<text x="35" y="217" textLength="229" font-family="Helvetica" font-size="12" fill="black">
1: QUO('I can do it for fee &lt;x&gt; in time &lt;y&gt;')
</text>
<line x1="75" y1="235" x2="75" y2="263" stroke="#BBBBBB"/>
<line x1="225" y1="235" x2="225" y2="263" stroke="#BBBBBB"/>
<line x1="375" y1="235" x2="375" y2="263" stroke="#BBBBBB"/>
<line x1="525" y1="235" x2="525" y2="263" stroke="#BBBBBB"/>
<line x1="525" y1="246" x2="75" y2="246" stroke="black"/>
<polygon fill="black" points="75,246 85,252 85,240"/>
<polygon fill="white" points="250,236 349,236 349,245 250,245"/>
<text x="251" y="245" textLength="97" font-family="Helvetica" font-size="12" fill="black">
(Other responses)
</text>
<line x1="75" y1="263" x2="75" y2="280" stroke="#BBBBBB" stroke-dasharray="2,2"/>
<line x1="225" y1="263" x2="225" y2="280" stroke="#BBBBBB" stroke-dasharray="2,2"/>
<line x1="375" y1="263" x2="375" y2="280" stroke="#BBBBBB" stroke-dasharray="2,2"/>
<line x1="525" y1="263" x2="525" y2="280" stroke="#BBBBBB" stroke-dasharray="2,2"/>
<line x1="75" y1="280" x2="75" y2="308" stroke="#BBBBBB"/>
<line x1="225" y1="280" x2="225" y2="308" stroke="#BBBBBB"/>
<line x1="375" y1="280" x2="375" y2="308" stroke="#BBBBBB"/>
<line x1="525" y1="280" x2="525" y2="308" stroke="#BBBBBB"/>
<path d="M 75 297 A73,6 0 0,1 75,285" stroke="red" fill="none"/><polygon fill="red" points="75,297 65,303 65,291"/>
<polygon fill="white" points="75,281 284,281 284,290 75,290"/>
<text x="76" y="290" textLength="207" font-family="Helvetica" font-size="12" fill="red">
Due diligence on all responding nodes.
</text>
<line x1="75" y1="308" x2="75" y2="336" stroke="#BBBBBB"/>
<line x1="225" y1="308" x2="225" y2="336" stroke="#BBBBBB"/>
<line x1="375" y1="308" x2="375" y2="336" stroke="#BBBBBB"/>
<line x1="525" y1="308" x2="525" y2="336" stroke="#BBBBBB"/>
<path d="M 75 325 A73,6 0 0,1 75,313" stroke="black" fill="none"/><polygon fill="black" points="75,325 65,331 65,319"/>
<polygon fill="white" points="75,309 436,309 436,318 75,318"/>
<text x="76" y="318" textLength="359" font-family="Helvetica" font-size="12" fill="black">
Node B's response looks like the most suitable (by some definition).
</text>
<line x1="75" y1="336" x2="75" y2="364" stroke="#BBBBBB"/>
<line x1="225" y1="336" x2="225" y2="364" stroke="#BBBBBB"/>
<line x1="375" y1="336" x2="375" y2="364" stroke="#BBBBBB"/>
<line x1="525" y1="336" x2="525" y2="364" stroke="#BBBBBB"/>
<line x1="75" y1="347" x2="225" y2="347" stroke="black"/>
<polygon fill="black" points="225,347 215,353 215,341"/>
<polygon fill="white" points="21,337 278,337 278,346 21,346"/>
<text x="22" y="346" textLength="255" font-family="Helvetica" font-size="12" fill="black">
2: EXE('I agree. Please initiate the transaction.')
</text>
<line x1="75" y1="364" x2="75" y2="392" stroke="#BBBBBB"/>
<line x1="225" y1="364" x2="225" y2="392" stroke="#BBBBBB"/>
<line x1="375" y1="364" x2="375" y2="392" stroke="#BBBBBB"/>
<line x1="525" y1="364" x2="525" y2="392" stroke="#BBBBBB"/>
<line x1="225" y1="375" x2="75" y2="375" stroke="red"/>
<polygon fill="red" points="75,375 85,381 85,369"/>
<polygon fill="white" points="13,365 285,365 285,374 13,374"/>
<text x="14" y="374" textLength="270" font-family="Helvetica" font-size="12" fill="red">
(non-error response indicates everything still good)
</text>
<polygon fill="white" points="283,362 470,362 470,367 283,367"/>
<text x="284" y="367" textLength="185" font-family="Helvetica" font-size="8" fill="black">
Protects against 'B' denying receipt-of-funds later on
</text>
<line x1="75" y1="392" x2="75" y2="420" stroke="#BBBBBB"/>
<line x1="225" y1="392" x2="225" y2="420" stroke="#BBBBBB"/>
<line x1="375" y1="392" x2="375" y2="420" stroke="#BBBBBB"/>
<line x1="525" y1="392" x2="525" y2="420" stroke="#BBBBBB"/>
<path d="M 225 409 A73,6 0 0,1 225,397" stroke="black" fill="none"/><polygon fill="black" points="225,409 215,415 215,403"/>
<polygon fill="white" points="225,393 430,393 430,402 225,402"/>
<text x="226" y="402" textLength="203" font-family="Helvetica" font-size="12" fill="black">
3: Transaction confirmed and initiated.
</text>
<line x1="75" y1="420" x2="75" y2="437" stroke="#BBBBBB"/>
<line x1="225" y1="420" x2="225" y2="437" stroke="#BBBBBB"/>
<line x1="375" y1="420" x2="375" y2="437" stroke="#BBBBBB"/>
<line x1="525" y1="420" x2="525" y2="437" stroke="#BBBBBB"/>
<line x1="37" y1="425" x2="563" y2="425" stroke="black" stroke-dasharray="2,2"/>
<polygon fill="white" points="278,421 320,421 320,430 278,430"/>
<text x="279" y="430" textLength="40" font-family="Helvetica" font-size="12" fill="black">
either...
</text>
<line x1="75" y1="437" x2="75" y2="465" stroke="#BBBBBB"/>
<line x1="225" y1="437" x2="225" y2="465" stroke="#BBBBBB"/>
<line x1="375" y1="437" x2="375" y2="465" stroke="#BBBBBB"/>
<line x1="525" y1="437" x2="525" y2="465" stroke="#BBBBBB"/>
<line x1="75" y1="448" x2="225" y2="448" stroke="black"/>
<polygon fill="black" points="225,448 215,454 215,442"/>
<polygon fill="white" points="67,438 232,438 232,447 67,447"/>
<text x="68" y="447" textLength="163" font-family="Helvetica" font-size="12" fill="black">
4a: RPT('Funds have arrived.')
</text>
<line x1="75" y1="465" x2="75" y2="482" stroke="#BBBBBB"/>
<line x1="225" y1="465" x2="225" y2="482" stroke="#BBBBBB"/>
<line x1="375" y1="465" x2="375" y2="482" stroke="#BBBBBB"/>
<line x1="525" y1="465" x2="525" y2="482" stroke="#BBBBBB"/>
<line x1="37" y1="470" x2="563" y2="470" stroke="black" stroke-dasharray="2,2"/>
<polygon fill="white" points="275,466 324,466 324,475 275,475"/>
<text x="276" y="475" textLength="47" font-family="Helvetica" font-size="12" fill="black">
or/then...
</text>
<line x1="75" y1="482" x2="75" y2="510" stroke="#BBBBBB"/>
<line x1="225" y1="482" x2="225" y2="510" stroke="#BBBBBB"/>
<line x1="375" y1="482" x2="375" y2="510" stroke="#BBBBBB"/>
<line x1="525" y1="482" x2="525" y2="510" stroke="#BBBBBB"/>
<path d="M 225 499 A73,6 0 0,1 225,487" stroke="black" fill="none"/><polygon fill="black" points="225,499 215,505 215,493"/>
<polygon fill="white" points="225,483 380,483 380,492 225,492"/>
<text x="226" y="492" textLength="153" font-family="Helvetica" font-size="12" fill="black">
4b: Confirm funds are here...
</text>
<line x1="75" y1="510" x2="75" y2="527" stroke="#BBBBBB"/>
<line x1="225" y1="510" x2="225" y2="527" stroke="#BBBBBB"/>
<line x1="375" y1="510" x2="375" y2="527" stroke="#BBBBBB"/>
<line x1="525" y1="510" x2="525" y2="527" stroke="#BBBBBB"/>
<line x1="37" y1="515" x2="563" y2="515" stroke="black" stroke-dasharray="2,2"/>
<line x1="75" y1="527" x2="75" y2="555" stroke="#BBBBBB"/>
<line x1="225" y1="527" x2="225" y2="555" stroke="#BBBBBB"/>
<line x1="375" y1="527" x2="375" y2="555" stroke="#BBBBBB"/>
<line x1="525" y1="527" x2="525" y2="555" stroke="#BBBBBB"/>
<line x1="225" y1="538" x2="75" y2="538" stroke="black"/>
<polygon fill="black" points="75,538 85,544 85,532"/>
<polygon fill="white" points="41,528 257,528 257,537 41,537"/>
<text x="42" y="537" textLength="214" font-family="Helvetica" font-size="12" fill="black">
4c: RPT('Funds confirmed as received.')
</text>
<line x1="75" y1="555" x2="75" y2="583" stroke="#BBBBBB"/>
<line x1="225" y1="555" x2="225" y2="583" stroke="#BBBBBB"/>
<line x1="375" y1="555" x2="375" y2="583" stroke="#BBBBBB"/>
<line x1="525" y1="555" x2="525" y2="583" stroke="#BBBBBB"/>
<line x1="225" y1="566" x2="75" y2="566" stroke="black"/>
<polygon fill="black" points="75,566 85,572 85,560"/>
<polygon fill="white" points="91,556 208,556 208,565 91,565"/>
<text x="92" y="565" textLength="115" font-family="Helvetica" font-size="12" fill="black">
4.1: EXR('Pending...')
</text>
<line x1="75" y1="583" x2="75" y2="611" stroke="#BBBBBB"/>
<line x1="225" y1="583" x2="225" y2="611" stroke="#BBBBBB"/>
<line x1="375" y1="583" x2="375" y2="611" stroke="#BBBBBB"/>
<line x1="525" y1="583" x2="525" y2="611" stroke="#BBBBBB"/>
<line x1="225" y1="594" x2="375" y2="594" stroke="black"/>
<polygon fill="black" points="375,594 365,600 365,588"/>
<polygon fill="white" points="118,584 480,584 480,593 118,593"/>
<text x="119" y="593" textLength="360" font-family="Helvetica" font-size="12" fill="black">
4.2: Actual transfer of some nature occurs here (out of IFEX scope.)
</text>
<line x1="75" y1="611" x2="75" y2="639" stroke="#BBBBBB"/>
<line x1="225" y1="611" x2="225" y2="639" stroke="#BBBBBB"/>
<line x1="375" y1="611" x2="375" y2="639" stroke="#BBBBBB"/>
<line x1="525" y1="611" x2="525" y2="639" stroke="#BBBBBB"/>
<line x1="225" y1="622" x2="375" y2="622" stroke="black"/>
<polygon fill="black" points="375,622 365,628 365,616"/>
<polygon fill="white" points="199,612 400,612 400,621 199,621"/>
<text x="200" y="621" textLength="199" font-family="Helvetica" font-size="12" fill="black">
4.3: RPT('You now have my money.')
</text>
<line x1="75" y1="639" x2="75" y2="667" stroke="#BBBBBB"/>
<line x1="225" y1="639" x2="225" y2="667" stroke="#BBBBBB"/>
<line x1="375" y1="639" x2="375" y2="667" stroke="#BBBBBB"/>
<line x1="525" y1="639" x2="525" y2="667" stroke="#BBBBBB"/>
<path d="M 375 644 A75,6 0 0,1 375,656" stroke="red" fill="none"/><polygon fill="red" points="375,656 385,662 385,650"/>
<polygon fill="white" points="246,640 373,640 373,649 246,649"/>
<text x="247" y="649" textLength="125" font-family="Helvetica" font-size="12" fill="red">
Check funds are here...
</text>
<line x1="75" y1="667" x2="75" y2="695" stroke="#BBBBBB"/>
<line x1="225" y1="667" x2="225" y2="695" stroke="#BBBBBB"/>
<line x1="375" y1="667" x2="375" y2="695" stroke="#BBBBBB"/>
<line x1="525" y1="667" x2="525" y2="695" stroke="#BBBBBB"/>
<line x1="375" y1="678" x2="225" y2="678" stroke="black"/>
<polygon fill="black" points="225,678 235,684 235,672"/>
<polygon fill="white" points="188,668 411,668 411,677 188,677"/>
<text x="189" y="677" textLength="221" font-family="Helvetica" font-size="12" fill="black">
4.4b: RPT('Got it.') (ie. C-proof-of-receipt)
</text>
<line x1="75" y1="695" x2="75" y2="723" stroke="#BBBBBB"/>
<line x1="225" y1="695" x2="225" y2="723" stroke="#BBBBBB"/>
<line x1="375" y1="695" x2="375" y2="723" stroke="#BBBBBB"/>
<line x1="525" y1="695" x2="525" y2="723" stroke="#BBBBBB"/>
<line x1="225" y1="706" x2="75" y2="706" stroke="black"/>
<polygon fill="black" points="75,706 85,712 85,700"/>
<polygon fill="white" points="14,696 285,696 285,705 14,705"/>
<text x="15" y="705" textLength="269" font-family="Helvetica" font-size="12" fill="black">
1: RPT('Status now SUCCESS',C-proof-of-receipt)
</text>
<line x1="75" y1="723" x2="75" y2="751" stroke="#BBBBBB"/>
<line x1="225" y1="723" x2="225" y2="751" stroke="#BBBBBB"/>
<line x1="375" y1="723" x2="375" y2="751" stroke="#BBBBBB"/>
<line x1="525" y1="723" x2="525" y2="751" stroke="#BBBBBB"/>
<line x1="75" y1="734" x2="225" y2="734" stroke="black"/>
<polygon fill="black" points="225,734 215,740 215,728"/>
<polygon fill="white" points="70,724 228,724 228,733 70,733"/>
<text x="71" y="733" textLength="156" font-family="Helvetica" font-size="12" fill="black">
2: RPT('Yep, we're all done.')
</text>
<line x1="75" y1="745" x2="75" y2="751" stroke="#BBBBBB"/>
<line x1="225" y1="745" x2="225" y2="751" stroke="#BBBBBB"/>
<line x1="375" y1="745" x2="375" y2="751" stroke="#BBBBBB"/>
<line x1="525" y1="745" x2="525" y2="751" stroke="#BBBBBB"/>
</svg>
